# xmcd
#
# Track frame offsets:
#	150
#	28330
#	38926
#	48617
#	57768
#	70511
#	85605
#	88398
#	102124
#	107025
#	117000
#	135149
#	147752
#	156366
#	160333
#	168749
#	186828
#	204831
#	221468
#	226943
#	228897
#	237686
#	248849
#	259584
#	277733
#	281194
#	298155
#
# Disc length: 4087 seconds
#
# Revision: 0
# Processed by: cddbd v1.5.2PL0 Copyright (c) Steve Scherf et al.
# Submitted via: audiograbber 1.83.01
#
DISCID=810ff51b
DTITLE=4 Chöre und Gemeinschaftschor des Münchner Sängerbundes - 57. Münchner S
DTITLE=ängertag am 21. März 2010, Eröffnung und Teil 1
DYEAR=2010
DGENRE=
TTITLE0=Eröffnungsrede
TTITLE1=Eröffnungslied: Musik erfüllt die Welt
TTITLE2=Ansage für Siemens-Chor München
TTITLE3=So sei gegrüßt viel tausendmal, holder Frühling
TTITLE4=Lerchengesang
TTITLE5=Amapolita
TTITLE6=Gratulation an Siemens-Chor München
TTITLE7=Ansage für Isar-Singkreis Haar
TTITLE8=Siyahamba
TTITLE9=Liab i di, kriag i di
TTITLE10=Gailtaler Kirchtagslieder
TTITLE11=Tiho lucka gori
TTITLE12=Bleibn ma banand
TTITLE13=Gratulation an Isar-Singkreis Haar
TTITLE14=Ansage für FC Gröbenzell
TTITLE15=Gabriella (aus: Wie im Himmel)
TTITLE16=Lena (aus: Wie im Himmel)
TTITLE17=Mamma Mia
TTITLE18=Gratulation an FC Gröbenzell
TTITLE19=Vorspann
TTITLE20=Das Morgenlied
TTITLE21=Volldampf voraus
TTITLE22=Wir lieben die Stürme
TTITLE23=Die Kneipe am Moor
TTITLE24=Gratulation an Shanty-Chor Isar-Möwen
TTITLE25=Far, far away
TTITLE26=Erneute Gratulation an Shanty-Chor Isar-Möwen
EXTD=
EXTT0=Max Gürth
EXTT1=Gemeinschaftschor
EXTT2=Alice Trapp
EXTT3=Siemens-Chor
EXTT4=Siemens-Chor
EXTT5=Siemens-Chor
EXTT6=Max Gürth
EXTT7=Alice Trapp
EXTT8=Isar-Singkreis Haar
EXTT9=Isar-Singkreis Haar
EXTT10=Isar-Singkreis Haar
EXTT11=Isar-Singkreis Haar
EXTT12=Isar-Singkreis Haar
EXTT13=Max Gürth
EXTT14=Alice Trapp
EXTT15=FC Gröbenzell
EXTT16=FC Gröbenzell
EXTT17=FC Gröbenzell
EXTT18=Max Gürth
EXTT19=Isar-Möwen
EXTT20=Isar-Möwen
EXTT21=Isar-Möwen
EXTT22=Isar-Möwen
EXTT23=Isar-Möwen
EXTT24=Max Gürth
EXTT25=Isar-Möwen
EXTT26=Max Gürth
PLAYORDER=
